<svg width="94" height="94" viewBox="0 0 94 94" fill="none" xmlns="http://www.w3.org/2000/svg">
<rect width="94" height="94" rx="47" fill="#FFF4DF"/>
<path d="M46.9991 52C41.7156 52 37.0171 54.5511 34.0258 58.5099C33.3819 59.362 33.06 59.788 33.0706 60.3638C33.0787 60.8086 33.358 61.3698 33.708 61.6445C34.1611 62 34.7889 62 36.0445 62H57.9537C59.2093 62 59.8371 62 60.2902 61.6445C60.6402 61.3698 60.9195 60.8086 60.9276 60.3638C60.9382 59.788 60.6163 59.362 59.9724 58.5099C56.9811 54.5511 52.2826 52 46.9991 52Z" fill="#F6B83D" stroke="#F6B83D" stroke-width="2" stroke-linecap="round" stroke-linejoin="round"/>
<path d="M47 47C51.1421 47 54.5 43.6421 54.5 39.5C54.5 35.3579 51.1421 32 47 32C42.8579 32 39.5 35.3579 39.5 39.5C39.5 43.6421 42.8579 47 47 47Z" fill="#F6B83D" stroke="#F6B83D" stroke-width="2" stroke-linecap="round" stroke-linejoin="round"/>
</svg>
