<svg style="position: absolute; width: 0; height: 0; overflow: hidden;" aria-hidden="true" version="1.1" xmlns="http://www.w3.org/2000/svg" xmlns:xlink="http://www.w3.org/1999/xlink">
    <style>
        .default-palette, .palette0 {color: currentColor;
            --color0: #ffc531;
            --color1: #ef2447;
            --color2: #08aa83;
            --color3: #f6b83d;
            --color4: #262626;
            --color5: #fff4df;
            --color6: #fff;
            --color7: #f43f5e;
            --color8: #54adff;
        }
    </style>
    <defs>
        <symbol id="eyeOff" viewBox="0 0 22 22" fill="none">
            <g stroke-width="2" stroke="var(--color3, #f6b83d)" stroke-linecap="round" stroke-linejoin="round" clip-path="url(#clip0_55848_2014)">
                <path d="M16.4463 16.445c-1.567 1.1944-3.475 1.8561-5.445 1.8883C4.5846 18.3333 0.918 11 0.918 11 2.0582 8.8751 3.6397 7.0186 5.5563 5.555M9.0763 3.8867c0.631-0.1477 1.277-0.2216 1.925-0.22C17.418 3.6667 21.0846 11 21.0846 11c-0.5564 1.041-1.22 2.021-1.98 2.9242M12.9446 12.9433c-0.2517 0.2702-0.5553 0.4869-0.8927 0.6372-0.3373 0.1503-0.7014 0.2312-1.0707 0.2377-0.3692 65e-4-0.736-0.0614-1.0784-0.1998-0.3424-0.1383-0.6535-0.3441-0.9146-0.6053-0.2612-0.2611-0.467-0.5722-0.6054-0.9146-0.1383-0.3424-0.2062-0.7092-0.1997-1.0784 65e-4-0.3693 0.0874-0.7334 0.2377-1.0707 0.1503-0.3374 0.367-0.641 0.6372-0.8927" />
                <path d="M0.918 0.9167 21.0846 21.0833" />
            </g>
            <defs>
                <clipPath id="clip0_55848_2014">
                    <rect fill="#fff" width="22" height="22" />
                </clipPath>
            </defs>
        </symbol>
        <symbol id="eye" viewBox="0 0 22 22" fill="none">
            <g stroke-width="2" stroke="var(--color3, #f6b83d)" stroke-linecap="round" stroke-linejoin="round" clip-path="url(#clip0_55848_2014)">
                <path d="M0.916 11c0 0 3.6667-7.3333 10.0833-7.3333C17.416 3.6667 21.0827 11 21.0827 11s-3.6667 7.3333-10.0834 7.3333C4.5827 18.3333 0.916 11 0.916 11z" />
                <path d="M11 13.75c1.5188 0 2.75-1.2312 2.75-2.75 0-1.5188-1.2312-2.75-2.75-2.75-1.5188 0-2.75 1.2312-2.75 2.75 0 1.5188 1.2312 2.75 2.75 2.75z" />
            </g>
        </symbol>
        <symbol id="search" viewBox="0 0 18 18" stroke-width="2" stroke="var(--color4, #262626)" stroke-linecap="round" stroke-linejoin="round" fill="none">
            <path d="M8.25 14.25c3.3137 0 6-2.6863 6-6s-2.6863-6-6-6-6 2.6863-6 6 2.6863 6 6 6z" />
            <path d="M15.7508 15.75l-3.2625-3.2625" />
        </symbol>
        <symbol id="icon-chevron-down" viewBox="0 0 18 18" fill="none">
            <path stroke-width="2" stroke="var(--color4, #262626)" stroke-linecap="round" stroke-linejoin="round" d="M4.5 6.75 9 11.25l4.5-4.5" />
        </symbol>
        <symbol id="icon" viewBox="0 0 50 50" stroke-width="2" stroke="var(--color3, #f6b83d)" stroke-linecap="round" stroke-linejoin="round" fill="var(--color3, #f6b83d)">
            <circle stroke="none" fill="var(--color5, #fff4df)" cx="25" cy="25" r="25" />
            <path d="M24.9999 28c-3.1701 0-5.9893 1.5306-7.7841 3.906-0.3862 0.5112-0.5794 0.7668-0.5731 1.1123 49e-4 0.2669 0.1725 0.6036 0.3825 0.7684C17.297 34 17.6737 34 18.4271 34h13.1455c0.7534 0 1.1301 0 1.4019-0.2133 0.21-0.1648 0.3776-0.5015 0.3825-0.7684 63e-4-0.3455-0.1869-0.6011-0.5731-1.1123-1.7948-2.3754-4.614-3.906-7.784-3.906z" />
            <path d="M25 25c2.4853 0 4.5-2.0147 4.5-4.5S27.4853 16 25 16s-4.5 2.0147-4.5 4.5S22.5147 25 25 25z" />
        </symbol>
        <symbol id="icon-calendar" viewBox="0 0 20 20" stroke-width="1.8" stroke="var(--color4, #262626)" stroke-linecap="round" stroke-linejoin="round" fill="none">
            <path d="M15.8333 3.3333l-11.6666 0C3.2462 3.3333 2.5 4.0795 2.5 5v11.6667c0 0.9204 0.7462 1.6666 1.6667 1.6666h11.6666c0.9205 0 1.6667-0.7462 1.6667-1.6666V5c0-0.9205-0.7462-1.6667-1.6667-1.6667z" />
            <path d="M13.333 1.6667V5" />
            <path d="M6.667 1.6667 6.667 5" />
            <path d="M2.5 8.3333l15 0" />
        </symbol>
        <symbol id="icon-female" viewBox="0 0 24 24">
            <circle cx="12" cy="9" r="6" fill="none" stroke="currentColor" stroke-width="2"/>
            <path d="M12 15v6m-3-3h6" stroke="currentColor" stroke-width="2" stroke-linecap="round"/>
        </symbol>
        <symbol id="icon-male" viewBox="0 0 24 24">
            <circle cx="9" cy="12" r="6" fill="none" stroke="currentColor" stroke-width="2"/>
            <path d="M13.5 7.5L19 2m0 0h-5m5 0v5" stroke="currentColor" stroke-width="2" stroke-linecap="round" stroke-linejoin="round"/>
        </symbol>
        <symbol id="icon-multiple" viewBox="0 0 24 24" fill="none">
            <path fill-rule="evenodd" clip-rule="evenodd" d="M8.77074 7.74498C8.05311 7.46474 7.26305 7.42921 6.52317 7.6439C5.78328 7.85859 5.13495 8.31149 4.67878 8.93232C4.22261 9.55315 3.98411 10.3072 4.00031 11.0774C4.0165 11.8477 4.28647 12.591 4.76833 13.1921C5.25019 13.7932 5.91699 14.2185 6.66524 14.4019C7.41349 14.5853 8.20136 14.5166 8.90658 14.2064C9.61179 13.8963 10.1949 13.362 10.5655 12.6866C10.936 12.0111 11.0732 11.2323 10.9558 10.4709C10.9459 10.406 10.9488 10.3398 10.9644 10.276C10.98 10.2123 11.008 10.1522 11.0468 10.0993C11.0857 10.0463 11.1345 10.0016 11.1906 9.96753C11.2468 9.93349 11.309 9.91083 11.3739 9.90086C11.4388 9.89088 11.505 9.89378 11.5688 9.90939C11.6325 9.925 11.6926 9.95302 11.7455 9.99184C11.7985 10.0307 11.8432 10.0795 11.8773 10.1357C11.9113 10.1918 11.934 10.2541 11.9439 10.3189C12.0947 11.2979 11.9181 12.2992 11.4416 13.1675C10.9651 14.0358 10.2153 14.7226 9.30862 15.1213C8.40192 15.5199 7.38899 15.6081 6.42701 15.3723C5.46503 15.1364 4.6078 14.5896 3.98833 13.8168C3.36886 13.0439 3.0218 12.0882 3.00099 11.098C2.98019 10.1077 3.28681 9.1383 3.87327 8.34011C4.45974 7.54193 5.29325 6.95963 6.24448 6.68358C7.1957 6.40752 8.21144 6.45314 9.13409 6.81336C9.19607 6.8366 9.25281 6.87193 9.30102 6.91728C9.34923 6.96263 9.38796 7.01711 9.41495 7.07755C9.44194 7.13798 9.45665 7.20318 9.45824 7.26936C9.45982 7.33553 9.44825 7.40136 9.42418 7.46302C9.40012 7.52468 9.36405 7.58095 9.31806 7.62856C9.27208 7.67617 9.21709 7.71417 9.1563 7.74035C9.09551 7.76654 9.03012 7.78039 8.96393 7.7811C8.89775 7.7818 8.83208 7.76986 8.77074 7.74498Z" fill="currentColor" />
            <path fill-rule="evenodd" clip-rule="evenodd" d="M6.99805 19.5002V15.5018C6.99805 15.3693 7.0507 15.2421 7.14443 15.1484C7.23816 15.0547 7.36529 15.002 7.49784 15.002C7.6304 15.002 7.75752 15.0547 7.85125 15.1484C7.94498 15.2421 7.99764 15.3693 7.99764 15.5018V19.5002C7.99764 19.6328 7.94498 19.7599 7.85125 19.8536C7.75752 19.9473 7.6304 20 7.49784 20C7.36529 20 7.23816 19.9473 7.14443 19.8536C7.0507 19.7599 6.99805 19.6328 6.99805 19.5002Z" fill="currentColor" />
            <path fill-rule="evenodd" clip-rule="evenodd" d="M5.49902 17.0012C5.49902 16.8687 5.55168 16.7415 5.64541 16.6478C5.73914 16.5541 5.86627 16.5014 5.99882 16.5014H8.9976C9.13016 16.5014 9.25728 16.5541 9.35101 16.6478C9.44474 16.7415 9.4974 16.8687 9.4974 17.0012C9.4974 17.1338 9.44474 17.2609 9.35101 17.3546C9.25728 17.4484 9.13016 17.501 8.9976 17.501H5.99882C5.86627 17.501 5.73914 17.4484 5.64541 17.3546C5.55168 17.2609 5.49902 17.1338 5.49902 17.0012ZM14.4464 7.63653C13.8925 7.48016 13.3086 7.46285 12.7464 7.58614C12.1843 7.70942 11.6612 7.96949 11.2236 8.34329C10.786 8.71709 10.4473 9.19308 10.2377 9.72906C10.028 10.265 9.95383 10.8445 10.0217 11.416C10.0298 11.4813 10.0249 11.5477 10.0073 11.6111C9.98972 11.6746 9.95975 11.7339 9.91914 11.7858C9.87853 11.8376 9.82808 11.8809 9.77068 11.9132C9.71328 11.9455 9.65006 11.9661 9.58467 11.9739C9.51928 11.9816 9.45299 11.9764 9.38963 11.9585C9.32626 11.9405 9.26707 11.9103 9.21544 11.8694C9.16381 11.8285 9.12077 11.7778 9.08879 11.7203C9.05681 11.6627 9.03652 11.5994 9.02909 11.5339C8.91232 10.5504 9.12346 9.55573 9.62975 8.70441C10.136 7.85309 10.9092 7.19268 11.8292 6.82567C12.7491 6.45865 13.7645 6.40556 14.7178 6.67462C15.671 6.94368 16.5088 7.51985 17.1011 8.31372C17.6935 9.1076 18.0072 10.0748 17.9936 11.0652C17.9801 12.0556 17.64 13.0138 17.0262 13.7912C16.4124 14.5686 15.5592 15.1216 14.5989 15.3645C13.6387 15.6074 12.6251 15.5265 11.7155 15.1345C11.6552 15.1085 11.6006 15.0709 11.5549 15.0239C11.5091 14.9768 11.4731 14.9212 11.4488 14.8602C11.3998 14.7371 11.4017 14.5995 11.4541 14.4777C11.5065 14.356 11.6052 14.2601 11.7283 14.211C11.8515 14.162 11.9891 14.1639 12.1108 14.2164C12.5506 14.4058 13.0245 14.503 13.5033 14.5019C13.9821 14.5008 14.4556 14.4014 14.8944 14.2099C15.3332 14.0184 15.7281 13.7389 16.0546 13.3886C16.381 13.0384 16.6321 12.6248 16.7922 12.1736C16.9524 11.7224 17.0182 11.2431 16.9857 10.7654C16.9531 10.2877 16.8229 9.82181 16.603 9.39649C16.3831 8.97118 16.0782 8.59553 15.7072 8.2928C15.3363 7.99007 14.9072 7.7667 14.4464 7.63653Z" fill="currentColor" />
            <path fill-rule="evenodd" clip-rule="evenodd" d="M16.3915 8.60812C16.2978 8.51439 16.2451 8.38729 16.2451 8.25476C16.2451 8.12223 16.2978 7.99513 16.3915 7.9014L20.1399 4.15293C20.186 4.10519 20.2412 4.06711 20.3022 4.04092C20.3631 4.01473 20.4287 4.00094 20.4951 4.00036C20.5614 3.99979 20.6273 4.01243 20.6887 4.03756C20.7501 4.06269 20.8059 4.0998 20.8528 4.14673C20.8998 4.19366 20.9369 4.24946 20.962 4.31088C20.9871 4.37231 20.9998 4.43812 20.9992 4.50448C20.9986 4.57085 20.9848 4.63643 20.9586 4.69741C20.9325 4.75838 20.8944 4.81353 20.8466 4.85964L17.0982 8.60812C17.0044 8.70181 16.8773 8.75445 16.7448 8.75445C16.6123 8.75445 16.4852 8.70181 16.3915 8.60812Z" fill="currentColor" />
            <path fill-rule="evenodd" clip-rule="evenodd" d="M20.455 7.50508C20.3893 7.50423 20.3245 7.49046 20.2642 7.46456C20.2039 7.43865 20.1493 7.40112 20.1035 7.35411C20.0577 7.30709 20.0216 7.25151 19.9972 7.19055C19.9729 7.12958 19.9608 7.06442 19.9617 6.99878L19.9867 5.01259L18.0005 5.03758C17.8679 5.0393 17.7401 4.9883 17.6452 4.89579C17.5502 4.80327 17.4959 4.67683 17.4942 4.54428C17.4925 4.41172 17.5435 4.28391 17.636 4.18897C17.7285 4.09402 17.8549 4.03971 17.9875 4.03798L20.9993 4L20.9613 7.01178C20.9604 7.07741 20.9467 7.14224 20.9208 7.20255C20.8949 7.26287 20.8573 7.31749 20.8103 7.3633C20.7633 7.4091 20.7077 7.4452 20.6467 7.46953C20.5858 7.49386 20.5206 7.50594 20.455 7.50508Z" fill="currentColor" />
        </symbol>
        <symbol id="icon-upload-cloud" viewBox="0 0 24 24" fill="none" xmlns="http://www.w3.org/2000/svg">
            <path d="M7 16.29C4.16 15.93 2 13.51 2 10.5C2 7.63 4.14 5.25 7 4.58C7.75 2.5 9.71 1 12 1C14.73 1 17.03 2.94 17.52 5.51C17.68 5.5 17.84 5.5 18 5.5C21.31 5.5 24 8.19 24 11.5C24 14.53 21.75 17.02 18.79 17.45" stroke="#F6B83D" stroke-width="2" stroke-linecap="round" stroke-linejoin="round"/>
            <path d="M12 21V12" stroke="#F6B83D" stroke-width="2" stroke-linecap="round" stroke-linejoin="round"/>
            <path d="M9 15L12 12L15 15" stroke="#F6B83D" stroke-width="2" stroke-linecap="round" stroke-linejoin="round"/>
        </symbol>
        <symbol id="heart" viewBox="0 0 48 48" fill="none">
            <rect fill="none" width="48" height="48" rx="24" />
            <path stroke-width="1.5" stroke="#fff"  d="M30.6306 18.4575c-0.3831-0.3833-0.8379-0.6873-1.3385-0.8947s-1.0372-0.3142-1.579-0.3142c-0.5419 0-1.0784 0.1068-1.579 0.3142s-0.9555 0.5114-1.3385 0.8947l-0.795 0.795-0.795-0.795c-0.7738-0.7738-1.8232-1.2085-2.9175-1.2085s-2.1438 0.4347-2.9175 1.2085c-0.7738 0.7738-1.2085 1.8232-1.2085 2.9175s0.4347 2.1437 1.2085 2.9175l0.795 0.795 5.835 5.835 5.835-5.835 0.795-0.795c0.3832-0.3831 0.6872-0.8379 0.8947-1.3385 0.2074-0.5006 0.3141-1.0371 0.3141-1.579s-0.1067-1.0784-0.3141-1.579c-0.2075-0.5006-0.5115-0.9554-0.8947-1.3385z" />
        </symbol>
        <symbol id="wastebasket" viewBox="14 14 16 16" fill="none" stroke="#F6B83D" stroke-width="1.5" stroke-linecap="round" stroke-linejoin="round">
            <path d="M15.25 17.5h13.5" />
            <path d="M27.25 17.5V28c0 0.8-0.6 1.5-1.5 1.5h-7.5c-0.9 0-1.5-0.7-1.5-1.5V17.5M19 17.5V16c0-0.8 0.6-1.5 1.5-1.5h3c0.9 0 1.5 0.7 1.5 1.5v1.5" />
            <path d="M20.5 21.25v4.5" />
            <path d="M23.5 21.25v4.5" />
        </symbol>
       <symbol id="pen" viewBox="0 0 18 18" fill="none">
            <path d="M12.75 2.25C12.947 2.05301 13.1808 1.89676 13.4382 1.79015C13.6956 1.68355 13.9714 1.62868 14.25 1.62868C14.5286 1.62868 14.8044 1.68355 15.0618 1.79015C15.3192 1.89676 15.553 2.05301 15.75 2.25C15.947 2.44698 16.1032 2.68083 16.2098 2.9382C16.3164 3.19557 16.3713 3.47142 16.3713 3.75C16.3713 4.02857 16.3164 4.30442 16.2098 4.56179C16.1032 4.81916 15.947 5.05301 15.75 5.25L5.625 15.375L1.5 16.5L2.625 12.375L12.75 2.25Z" 
                stroke="#F6B83D" 
                stroke-width="1.5" 
                stroke-linecap="round" 
                stroke-linejoin="round" />
        </symbol>
       
        <symbol id="slider2r" viewBox="0 0 44 44" fill="var(--color4, #262626)" fill-opacity="0.5">
            <path stroke="var(--color4, #262626)" stroke-opacity="0.2" fill="none" d="M22 0.5c11.8741 0 21.5 9.6259 21.5 21.5S33.8741 43.5 22 43.5 0.5 33.8741 0.5 22C0.5 10.1259 10.1259 0.5 22 0.5z" />
            <path d="M16.6008 22.71c-0.0937-0.093-0.1681-0.2036-0.2189-0.3254C16.3312 22.2627 16.305 22.132 16.305 22s0.0262-0.2627 0.0769-0.3846c0.0508-0.1218 0.1252-0.2324 0.2189-0.3254l4.59-4.58c0.0938-0.093 0.1682-0.2036 0.2189-0.3254 0.0508-0.1219 0.0769-0.2526 0.0769-0.3846s-0.0261-0.2627-0.0769-0.3846c-0.0507-0.1218-0.1251-0.2324-0.2189-0.3254-0.1873-0.1863-0.4408-0.2908-0.705-0.2908-0.2641 0-0.5176 0.1045-0.705 0.2908l-4.59 4.59c-0.5618 0.5625-0.8773 1.325-0.8773 2.12s0.3155 1.5575 0.8773 2.12l4.59 4.59c0.1863 0.1848 0.4377 0.2889 0.7 0.29 0.1316 8e-4 0.2621-0.0244 0.3839-0.0742 0.1219-0.0498 0.2327-0.1231 0.3261-0.2158 0.0938-0.0929 0.1682-0.2035 0.2189-0.3254 0.0508-0.1219 0.0769-0.2526 0.0769-0.3846s-0.0261-0.2627-0.0769-0.3846c-0.0507-0.1218-0.1251-0.2324-0.2189-0.3254z" />
            <path d="M23.6008 22.71c-0.0937-0.093-0.1681-0.2036-0.2189-0.3254C23.3312 22.2627 23.305 22.132 23.305 22s0.0262-0.2627 0.0769-0.3846c0.0508-0.1218 0.1252-0.2324 0.2189-0.3254l4.59-4.58c0.0938-0.093 0.1682-0.2036 0.2189-0.3254 0.0508-0.1219 0.0769-0.2526 0.0769-0.3846s-0.0261-0.2627-0.0769-0.3846c-0.0507-0.1218-0.1251-0.2324-0.2189-0.3254-0.1873-0.1863-0.4408-0.2908-0.705-0.2908-0.2641 0-0.5176 0.1045-0.705 0.2908l-4.59 4.59c-0.5618 0.5625-0.8773 1.325-0.8773 2.12s0.3155 1.5575 0.8773 2.12l4.59 4.59c0.1863 0.1848 0.4377 0.2889 0.7 0.29 0.1316 8e-4 0.2621-0.0244 0.3839-0.0742 0.1219-0.0498 0.2327-0.1231 0.3261-0.2158 0.0938-0.0929 0.1682-0.2035 0.2189-0.3254 0.0508-0.1219 0.0769-0.2526 0.0769-0.3846s-0.0261-0.2627-0.0769-0.3846c-0.0507-0.1218-0.1251-0.2324-0.2189-0.3254z" />
        </symbol>
        <symbol id="slider1r" viewBox="0 0 44 44" fill="none">
            <path stroke="var(--color4, #262626)" stroke-opacity="0.2" d="M22 0.5c11.8741 0 21.5 9.6259 21.5 21.5S33.8741 43.5 22 43.5 0.5 33.8741 0.5 22C0.5 10.1259 10.1259 0.5 22 0.5z" />
            <path fill="var(--color4, #262626)" fill-opacity="0.5" d="M20.6008 22.71c-0.0937-0.093-0.1681-0.2036-0.2189-0.3254C20.3312 22.2627 20.305 22.132 20.305 22s0.0262-0.2627 0.0769-0.3846c0.0508-0.1218 0.1252-0.2324 0.2189-0.3254l4.59-4.58c0.0938-0.093 0.1682-0.2036 0.2189-0.3254 0.0508-0.1219 0.0769-0.2526 0.0769-0.3846s-0.0261-0.2627-0.0769-0.3846c-0.0507-0.1218-0.1251-0.2324-0.2189-0.3254-0.1873-0.1863-0.4408-0.2908-0.705-0.2908-0.2641 0-0.5176 0.1045-0.705 0.2908l-4.59 4.59c-0.5618 0.5625-0.8773 1.325-0.8773 2.12s0.3155 1.5575 0.8773 2.12l4.59 4.59c0.1863 0.1848 0.4377 0.2889 0.7 0.29 0.1316 8e-4 0.2621-0.0244 0.3839-0.0742 0.1219-0.0498 0.2327-0.1231 0.3261-0.2158 0.0938-0.0929 0.1682-0.2035 0.2189-0.3254 0.0508-0.1219 0.0769-0.2526 0.0769-0.3846s-0.0261-0.2627-0.0769-0.3846c-0.0507-0.1218-0.1251-0.2324-0.2189-0.3254z" />
        </symbol>
        <symbol id="slider1l" viewBox="0 0 44 44" fill="none">
            <path stroke="var(--color4, #262626)" stroke-opacity="0.2" d="M22 0.5c11.8741 0 21.5 9.6259 21.5 21.5S33.8741 43.5 22 43.5 0.5 33.8741 0.5 22C0.5 10.1259 10.1259 0.5 22 0.5z" />
            <path fill="var(--color4, #262626)" d="M23.3992 22.71c0.0937-0.093 0.1681-0.2036 0.2189-0.3254C23.6688 22.2627 23.695 22.132 23.695 22s-0.0262-0.2627-0.0769-0.3846c-0.0508-0.1218-0.1252-0.2324-0.2189-0.3254l-4.59-4.58c-0.0938-0.093-0.1682-0.2036-0.2189-0.3254-0.0508-0.1219-0.0769-0.2526-0.0769-0.3846s0.0261-0.2627 0.0769-0.3846c0.0507-0.1218 0.1251-0.2324 0.2189-0.3254 0.1873-0.1863 0.4408-0.2908 0.705-0.2908 0.2641 0 0.5176 0.1045 0.705 0.2908l4.59 4.59c0.5618 0.5625 0.8773 1.325 0.8773 2.12s-0.3155 1.5575-0.8773 2.12l-4.59 4.59c-0.1863 0.1848-0.4377 0.2889-0.7 0.29-0.1316 8e-4-0.2621-0.0244-0.3839-0.0742-0.1219-0.0498-0.2327-0.1231-0.3261-0.2158-0.0938-0.0929-0.1682-0.2035-0.2189-0.3254-0.0508-0.1219-0.0769-0.2526-0.0769-0.3846s0.0261-0.2627 0.0769-0.3846c0.0507-0.1218 0.1251-0.2324 0.2189-0.3254z" />
        </symbol>
        <symbol id="slider2l" viewBox="0 0 44 44" fill="var(--color4, #262626)">
            <path stroke="var(--color4, #262626)" stroke-opacity="0.2" fill="none" d="M22 0.5c11.8741 0 21.5 9.6259 21.5 21.5S33.8741 43.5 22 43.5 0.5 33.8741 0.5 22C0.5 10.1259 10.1259 0.5 22 0.5z" />
            <path d="M27.3992 22.71c0.0937-0.093 0.1681-0.2036 0.2189-0.3254C27.6688 22.2627 27.695 22.132 27.695 22s-0.0262-0.2627-0.0769-0.3846c-0.0508-0.1218-0.1252-0.2324-0.2189-0.3254l-4.59-4.58c-0.0938-0.093-0.1682-0.2036-0.2189-0.3254-0.0508-0.1219-0.0769-0.2526-0.0769-0.3846s0.0261-0.2627 0.0769-0.3846c0.0507-0.1218 0.1251-0.2324 0.2189-0.3254 0.1873-0.1863 0.4408-0.2908 0.705-0.2908 0.2641 0 0.5176 0.1045 0.705 0.2908l4.59 4.59c0.5618 0.5625 0.8773 1.325 0.8773 2.12s-0.3155 1.5575-0.8773 2.12l-4.59 4.59c-0.1863 0.1848-0.4377 0.2889-0.7 0.29-0.1316 8e-4-0.2621-0.0244-0.3839-0.0742-0.1219-0.0498-0.2327-0.1231-0.3261-0.2158-0.0938-0.0929-0.1682-0.2035-0.2189-0.3254-0.0508-0.1219-0.0769-0.2526-0.0769-0.3846s0.0261-0.2627 0.0769-0.3846c0.0507-0.1218 0.1251-0.2324 0.2189-0.3254z" />
            <path d="M20.3992 22.71c0.0937-0.093 0.1681-0.2036 0.2189-0.3254C20.6688 22.2627 20.695 22.132 20.695 22s-0.0262-0.2627-0.0769-0.3846c-0.0508-0.1218-0.1252-0.2324-0.2189-0.3254l-4.59-4.58c-0.0938-0.093-0.1682-0.2036-0.2189-0.3254-0.0508-0.1219-0.0769-0.2526-0.0769-0.3846s0.0261-0.2627 0.0769-0.3846c0.0507-0.1218 0.1251-0.2324 0.2189-0.3254 0.1873-0.1863 0.4408-0.2908 0.705-0.2908 0.2641 0 0.5176 0.1045 0.705 0.2908l4.59 4.59c0.5618 0.5625 0.8773 1.325 0.8773 2.12s-0.3155 1.5575-0.8773 2.12l-4.59 4.59c-0.1863 0.1848-0.4377 0.2889-0.7 0.29-0.1316 8e-4-0.2621-0.0244-0.3839-0.0742-0.1219-0.0498-0.2327-0.1231-0.3261-0.2158-0.0938-0.0929-0.1682-0.2035-0.2189-0.3254-0.0508-0.1219-0.0769-0.2526-0.0769-0.3846s0.0261-0.2627 0.0769-0.3846c0.0507-0.1218 0.1251-0.2324 0.2189-0.3254z" />
        </symbol>
        <symbol id="star" viewBox="0 0 16 16" fill="none">
            <path stroke-width="1.2" stroke="var(--color0, #ffc531)" fill="var(--color0, #ffc531)" d="M9.7998 4.6973C9.959 4.9988 10.249 5.2094 10.585 5.2676l3.7998 0.6562-2.6875 2.7676c-0.2376 0.2446-0.3484 0.5854-0.2998 0.9229l0.5488 3.8173-3.461-1.7011-0.1171-0.0498c-0.2381-0.0846-0.4983-0.0846-0.7364 0l-0.1172 0.0498-3.4619 1.7011 0.5498-3.8173C4.6511 9.2768 4.5403 8.936 4.3027 8.6914L1.6143 5.9238 5.415 5.2676c0.336-0.0582 0.626-0.2688 0.7852-0.5703L8 1.2861z" />
            <defs>
                <clipPath id="clip0_55857_2203">
                    <rect fill="#fff" width="16" height="16" />
                </clipPath>
            </defs>
        </symbol>
        <symbol id="crossSmall" viewBox="0 0 22 22" fill="none">
            <path stroke-width="2" stroke="#fff" stroke-linecap="round" d="M17.4163 4.5833 4.583 17.4167M4.5831 4.5833 17.4163 17.4167" />
        </symbol>
        <symbol id="check" viewBox="0 0 22 22" fill="none">
            <path stroke-width="1.5" stroke="var(--color2, #08aa83)" stroke-linecap="round" stroke-linejoin="round" d="M18.3337 6.4167 8.2504 16.5 3.667 11.9167" />
        </symbol>
        <symbol id="icon-burger" viewBox="0 0 32 32">
            <path d="M4 8H28M4 16H28M4 24H28"  stroke-width="2.5" stroke-linecap="round"/>
        </symbol>
        <symbol id="icon-star" viewBox="0 0 18 18">
            <path 
                d="M9 1.5L11.655 6.18L17 7.245L13.125 10.965L13.995 16.5L9 14.1L4.005 16.5L4.875 10.965L1 7.245L6.345 6.18L9 1.5Z" 
                stroke="#ffc531" 
                stroke-width="1.5" 
                stroke-linecap="round" 
                stroke-linejoin="round"
                fill="#ffc531"
            />
        </symbol>
        <symbol id="heart-outline" viewBox="0 0 18 16" fill="none">
            <path 
                d="M15.2185 1.95887C14.8354 1.57562 14.3806 1.2716 13.88 1.06418C13.3794 0.85676 12.8428 0.75 12.301 0.75C11.7591 0.75 11.2225 0.85676 10.722 1.06418C10.2214 1.2716 9.76653 1.57562 9.38347 1.95887L8.58847 2.75387L7.79347 1.95887C7.0197 1.1851 5.97024 0.750401 4.87597 0.750401C3.78169 0.750401 2.73224 1.1851 1.95847 1.95887C1.1847 2.73264 0.75 3.78209 0.75 4.87637C0.75 5.97064 1.1847 7.0201 1.95847 7.79387L2.75347 8.58887L8.58847 14.4239L14.4235 8.58887L15.2185 7.79387C15.6017 7.4108 15.9057 6.95598 16.1132 6.45539C16.3206 5.95479 16.4273 5.41823 16.4273 4.87637C16.4273 4.3345 16.3206 3.79795 16.1132 3.29735C15.9057 2.79676 15.6017 2.34194 15.2185 1.95887Z" 
                stroke="currentColor" 
                stroke-width="1.5" 
                stroke-linecap="round" 
                stroke-linejoin="round" 
            />
        </symbol>
        <symbol id="icon-heart" viewBox="0 0 18 18">
            <path 
                d="M15.63 3.1125C14.8856 2.368 13.8756 1.95 12.822 1.95C11.7684 1.95 10.7584 2.368 10.014 3.1125L9 4.1265L7.986 3.1125C7.2416 2.368 6.2316 1.95 5.178 1.95C4.1244 1.95 3.1144 2.368 2.37 3.1125C0.814 4.6685 0.814 7.1895 2.37 8.7455L9 15.375L15.63 8.7455C17.186 7.1895 17.186 4.6685 15.63 3.1125Z" 
                stroke="#f6b83d" 
                stroke-width="1.5" 
                stroke-linecap="round" 
                stroke-linejoin="round"
                fill="none"
            />
        </symbol>
        <symbol id="icon-close" viewBox="0 0 24 24" fill="none">
            <path 
                d="M18 6L6 18M6 6L18 18" 
                stroke="black" 
                stroke-width="2" 
                stroke-linecap="round" 
                stroke-linejoin="round"
            />
        </symbol>
       <symbol id="icon-heart-filled" viewBox="0 0 24 24">
            <path fill="#f6b83d" stroke="#f6b83d"  d="M12 21.35l-1.45-1.32C5.4 15.36 2 12.28 2 8.5 2 5.42 4.42 3 7.5 3c1.74 0 3.41.81 4.5 2.09C13.09 3.81 14.76 3 16.5 3 19.58 3 22 5.42 22 8.5c0 3.78-3.4 6.86-8.55 11.54L12 21.35z"/>
        </symbol>
        <symbol id="userDefault" viewBox="0 0 24 24">
            <path fill="#F6B83D" d="M12 12c2.21 0 4-1.79 4-4s-1.79-4-4-4-4 1.79-4 4 1.79 4 4 4zm0 2c-2.67 0-8 1.34-8 4v2h16v-2c0-2.66-5.33-4-8-4z"/>
        </symbol>
        <symbol id="icon-trash" viewBox="0 0 24 24">
            <path fill="none" stroke="#f6b83d" stroke-width="2" stroke-linecap="round" stroke-linejoin="round" d="M3 6h18m-2 0v14c0 1-1 2-2 2H7c-1 0-2-1-2-2V6m3 0V4c0-1 1-2 2-2h4c1 0 2 1 2 2v2m-6 5v6m4-5v6"/>
        </symbol>
       <symbol id="icon-paw" viewBox="0 0 44 44" fill="none">
            <path d="M17.1875 6.875C15.7162 6.875 14.4348 7.711 13.6208 8.85225C12.8068 9.9935 12.375 11.4675 12.375 13.0625C12.375 14.6575 12.8068 16.1329 13.6208 17.2741C14.4348 18.4154 15.7162 19.25 17.1875 19.25C18.6588 19.25 19.9402 18.414 20.7542 17.2728C21.5683 16.1315 22 14.6575 22 13.0625C22 11.4675 21.5683 9.99213 20.7542 8.85087C19.9402 7.70962 18.6588 6.875 17.1875 6.875ZM22 13.0625C22 14.6575 22.4317 16.1329 23.2458 17.2741C24.0597 18.4154 25.3426 19.25 26.8125 19.25C28.2838 19.25 29.5653 18.414 30.3792 17.2728C31.1933 16.1315 31.625 14.6575 31.625 13.0625C31.625 11.4675 31.1933 9.99213 30.3792 8.85087C29.5653 7.70962 28.2838 6.875 26.8125 6.875C25.3412 6.875 24.0597 7.711 23.2458 8.85225C22.4317 9.9935 22 11.4675 22 13.0625ZM17.1875 9.625C17.6165 9.625 18.0895 9.8395 18.5213 10.4418C18.9475 11.0426 19.25 11.9996 19.25 13.0625C19.25 14.1254 18.9475 15.0838 18.5213 15.6833C18.0895 16.2855 17.6165 16.5 17.1875 16.5C16.7585 16.5 16.2855 16.2855 15.8537 15.6833C15.4275 15.0824 15.125 14.1254 15.125 13.0625C15.125 11.9996 15.4275 11.0413 15.8537 10.4418C16.2855 9.8395 16.7585 9.625 17.1875 9.625ZM26.8125 9.625C27.2415 9.625 27.7145 9.8395 28.1462 10.4418C28.5725 11.0426 28.875 11.9996 28.875 13.0625C28.875 14.1254 28.5725 15.0838 28.1462 15.6833C27.7145 16.2855 27.2415 16.5 26.8125 16.5C26.3835 16.5 25.9105 16.2855 25.4788 15.6833C25.0525 15.0824 24.75 14.1254 24.75 13.0625C24.75 11.9996 25.0525 11.0413 25.4788 10.4418C25.9105 9.8395 26.3835 9.625 26.8125 9.625ZM10.3125 16.5C8.84125 16.5 7.55975 17.336 6.74575 18.4773C5.93175 19.6185 5.5 21.0925 5.5 22.6875C5.5 24.2825 5.93175 25.7579 6.74575 26.8991C7.55975 28.0404 8.84125 28.875 10.3125 28.875C11.7838 28.875 13.0652 28.039 13.8792 26.8978C14.6932 25.7565 15.125 24.2825 15.125 22.6875C15.125 21.0925 14.6932 19.6171 13.8792 18.4759C13.0652 17.3346 11.7838 16.5 10.3125 16.5ZM33.6875 16.5C32.2162 16.5 30.9347 17.336 30.1208 18.4773C29.3067 19.6185 28.875 21.0925 28.875 22.6875C28.875 24.2825 29.3067 25.7579 30.1208 26.8991C30.9347 28.0404 32.2162 28.875 33.6875 28.875C35.1588 28.875 36.4403 28.039 37.2542 26.8978C38.0682 25.7565 38.5 24.2825 38.5 22.6875C38.5 21.0925 38.0682 19.6171 37.2542 18.4759C36.4403 17.3346 35.1588 16.5 33.6875 16.5ZM10.3125 19.25C10.7415 19.25 11.2145 19.4645 11.6463 20.0668C12.0725 20.6676 12.375 21.6246 12.375 22.6875C12.375 23.7504 12.0725 24.7088 11.6463 25.3083C11.2145 25.9105 10.7415 26.125 10.3125 26.125C9.8835 26.125 9.4105 25.9105 8.97875 25.3083C8.5525 24.7088 8.25 23.7504 8.25 22.6875C8.25 21.6246 8.5525 20.6663 8.97875 20.0668C9.4105 19.4645 9.8835 19.25 10.3125 19.25ZM33.6875 19.25C34.1165 19.25 34.5895 19.4645 35.0212 20.0668C35.4475 20.6676 35.75 21.6246 35.75 22.6875C35.75 23.7504 35.4475 24.7088 35.0212 25.3083C34.5895 25.9105 34.1165 26.125 33.6875 26.125C33.2585 26.125 32.7855 25.9105 32.3538 25.3083C31.9275 24.7074 31.625 23.7504 31.625 22.6875C31.625 21.6246 31.9275 20.6663 32.3538 20.0668C32.7855 19.4645 33.2585 19.25 33.6875 19.25ZM22 22C20.1671 22 18.8884 23.1894 18.26 24.2344C17.6357 25.2794 17.2507 26.1484 16.885 26.5114C16.6746 26.7273 15.3478 27.2264 13.9645 27.9318C13.2729 28.2851 12.5757 28.7568 11.9886 29.4786C11.3974 30.2005 10.9986 31.1974 10.9986 32.3153C10.9986 34.9553 13.1711 37.1278 15.8111 37.1278C17.0019 37.1278 18.2449 36.7428 19.4618 36.399C20.6841 36.047 22 35.75 22 35.75C22 35.75 23.3159 36.047 24.5355 36.3963C25.7537 36.74 26.9967 37.125 28.1875 37.125C30.8275 37.125 33 34.9525 33 32.3125C33 31.2208 32.5971 30.2225 32.01 29.5213C31.4256 28.8159 30.7216 28.38 30.0355 28.0156C28.6605 27.2869 27.3089 26.7094 27.1136 26.5114C26.7836 26.1855 26.4124 25.2876 25.7799 24.2371C25.1488 23.1825 23.8425 22 22 22ZM22 24.75C22.9075 24.75 23.0079 24.97 23.4163 25.652C23.8288 26.3326 24.1368 27.489 25.135 28.4886C26.2694 29.6161 27.7021 29.8636 28.7458 30.4191C29.2682 30.6969 29.667 30.9925 29.9062 31.2785C30.1441 31.5631 30.25 31.823 30.25 32.3098C30.25 33.4648 29.3425 34.3723 28.1875 34.3723C27.7887 34.3723 26.5045 34.0698 25.3083 33.726C24.112 33.3864 23.122 32.9973 22 32.9973C20.878 32.9973 19.888 33.3864 18.6917 33.726C17.4955 34.0698 16.2113 34.3723 15.8125 34.3723C14.6575 34.3723 13.75 33.4648 13.75 32.3098C13.75 31.7556 13.8655 31.471 14.0938 31.1905C14.322 30.9114 14.7428 30.635 15.2542 30.3751C16.2773 29.8526 17.7017 29.6464 18.8636 28.4845C19.8715 27.4711 20.174 26.2776 20.5824 25.6039C20.9839 24.9301 21.0801 24.7445 21.9986 24.7445L22 24.75Z" fill="currentColor" />
        </symbol>
        <symbol id="icon-dog" viewBox="0 0 512 512">
            <g>
                <path d="M217.517,226.123c-12.121,0-21.986,9.863-21.991,21.991c0,12.126,9.864,21.991,21.988,21.991h0.002 c12.126,0,21.991-9.865,21.991-21.991S229.643,226.123,217.517,226.123z"></path>
                <path d="M294.484,226.123c-12.121,0-21.986,9.863-21.991,21.991c0,12.126,9.864,21.991,21.988,21.991h0.002 c12.126,0,21.991-9.865,21.991-21.991S306.61,226.123,294.484,226.123z"></path>
                <path d="M327.47,352.569c0,15.157-12.331,27.488-27.488,27.488c-15.157,0-27.488-12.331-27.488-27.488v-20.263 c8.122-7.31,15.19-18.589,18.692-29.216c2.67-8.961-4.23-16.375-15.393-16.493c-13.194,0-26.389,0-39.583,0 c-11.162,0.118-18.063,7.533-15.393,16.493c3.502,10.627,10.57,21.906,18.692,29.216v20.263c0,15.157-12.331,27.488-27.488,27.488 c-15.157,0-27.488-12.331-27.488-27.488h-32.986c0,31.587,24.348,57.579,55.259,60.234c2.634,24.82,23.689,44.221,49.196,44.221 c25.507,0,46.563-19.401,49.196-44.221c30.911-2.655,55.259-28.647,55.259-60.234H327.47z M272.494,407.545 c0,9.094-7.398,16.493-16.493,16.493c-9.094,0-16.493-7.399-16.493-16.493v-1.138c6.191-3.174,11.764-7.38,16.493-12.396 c4.729,5.016,10.302,9.223,16.493,12.396V407.545z"></path>
                <path d="M459.365,271.809c-0.893-48.553-18.88-92.998-48.187-127.565c3.769-11.613,9.408-30.23,13.722-49.857 c11.062-50.318,7.18-78.969-12.217-90.169c-19.399-11.199-46.153-0.233-84.198,34.504c-14.783,13.498-28.041,27.632-36.222,36.707 c-11.77-2.126-23.889-3.24-36.262-3.24c-12.374,0-24.492,1.114-36.262,3.241c-8.181-9.074-21.439-23.208-36.222-36.707 c-38.047-34.739-64.801-45.704-84.2-34.504c-19.397,11.199-23.279,39.85-12.216,90.169c4.315,19.627,9.953,38.243,13.721,49.857 c-29.307,34.568-47.295,79.012-48.187,127.565c-20.42,20.836-33.034,49.35-33.034,80.759v16.493h16.493 c38.853,0,60.002,27.633,84.493,59.631c29.887,39.049,63.761,83.308,135.412,83.308s105.526-44.258,135.412-83.308 c24.49-31.997,45.64-59.631,84.493-59.631h16.493V352.57C492.399,321.161,479.786,292.645,459.365,271.809z M347.483,66.08 c31.941-29.851,45.372-32.804,48.558-33.036c1.393,2.876,5.55,15.984-4.331,58.571c-2.189,9.435-4.681,18.585-7.022,26.577 c-16.847-13.799-35.945-24.945-56.646-32.811C333.778,79.374,340.432,72.669,347.483,66.08z M115.96,33.044 c3.188,0.232,16.617,3.184,48.559,33.035c7.049,6.588,13.705,13.294,19.44,19.3c-20.7,7.866-39.796,19.012-56.646,32.811 c-2.341-7.991-4.831-17.141-7.021-26.576C110.41,49.028,114.567,35.921,115.96,33.044z M256.001,105.175 c84.288,0,154.468,61.51,168.043,141.998c-9.966-4.471-20.674-7.574-31.886-9.056c-7.404-44.186-45.92-77.964-92.176-77.964 c-15.489,0-30.499,3.775-43.981,10.993c-13.485-7.22-28.492-10.993-43.981-10.993c-46.256,0-84.771,33.78-92.176,77.964 c-11.212,1.482-21.92,4.585-31.886,9.056C101.532,166.686,171.713,105.175,256.001,105.175z M365.219,408.645 c-27.697,36.189-53.858,70.37-109.218,70.37s-81.521-34.181-109.218-70.37c-24.189-31.603-49.104-64.159-92.808-71.182 c7.117-38.28,40.766-67.358,81.078-67.358h16.493v-16.493c0-33.345,27.129-60.474,60.474-60.474 c12.425,0,24.369,3.753,34.543,10.852l9.438,6.586l9.438-6.586c10.173-7.099,22.117-10.851,34.543-10.851 c33.345,0,60.474,27.129,60.474,60.474v16.493h16.493c40.312,0,73.962,29.078,81.078,67.358 C414.323,344.486,389.408,377.042,365.219,408.645z"></path>
            </g>
        </symbol>

        <symbol id="icon-cat" viewBox="0 0 32 32">
            <g>
                <path d="M28.926 1.17l-2.182 3.608c-1.876-0.608-4.669-0.489-6.426 0l-2.102-3.557c-3.452 6.448-2.475 10.523 0.159 12.549-0.403 0.252-0.818 0.529-1.247 0.833-10.979-8.759-20.863 1.106-14.379 9.92h0.050c1.163 1.687 2.503 2.731 3.95 3.277 2.050 0.773 4.159 0.551 6.236 0.257s4.109-0.663 6.046-0.525c1.937 0.138 3.874 0.635 5.647 2.569 1.209 1.318 2.926-0.101 1.486-1.507-2.185-2.134-4.525-2.959-6.825-3.122s-4.505 0.293-6.502 0.576c-1.997 0.283-3.761 0.409-5.276-0.163-0.711-0.268-1.403-0.69-2.070-1.36h22.51c1.064-3.756 1.177-7.73-0.033-10.237 3.635-1.897 5.097-6.376 0.958-13.116z"></path>
    
                <path class="cat-eyes" d="M22.176 10.872c-2.316 1.117-3.367 0.212-3.817-1.656 2.273-1.41 3.626-0.278 3.817 1.656z"></path>
                <path class="cat-eyes" d="M25.067 10.872c0.191-1.934 1.544-3.067 3.817-1.656-0.45 1.868-1.502 2.774-3.817 1.656z"></path>
            </g>
        </symbol>

        <symbol id="icon-user" viewBox="0 0 18 18" fill="none" xmlns="http://www.w3.org/2000/svg">
            <path d="M9.00038 11.25C6.62282 11.25 4.50847 12.398 3.16237 14.1795C2.87265 14.5629 2.7278 14.7546 2.73253 15.0137C2.7362 15.2139 2.8619 15.4664 3.0194 15.59C3.22327 15.75 3.50578 15.75 4.0708 15.75H13.93C14.495 15.75 14.7775 15.75 14.9814 15.59C15.1389 15.4664 15.2646 15.2139 15.2682 15.0137C15.273 14.7546 15.1281 14.5629 14.8384 14.1795C13.4923 12.398 11.3779 11.25 9.00038 11.25Z" fill="currentColor" stroke="currentColor" stroke-width="2" stroke-linecap="round" stroke-linejoin="round" />
            <path d="M9 9C10.864 9 12.375 7.48896 12.375 5.625C12.375 3.76104 10.864 2.25 9 2.25C7.13604 2.25 5.625 3.76104 5.625 5.625C5.625 7.48896 7.13604 9 9 9Z" fill="white" stroke="currentColor" stroke-width="2" stroke-linecap="round" stroke-linejoin="round" />
        </symbol>
    </defs>
</svg>