<svg style="position: absolute; width: 0; height: 0; overflow: hidden;" aria-hidden="true" version="1.1" xmlns="http://www.w3.org/2000/svg" xmlns:xlink="http://www.w3.org/1999/xlink">
    <style>
        .default-palette, .palette0 {color: currentColor;
            --color0: #ffc531;
            --color1: #ef2447;
            --color2: #08aa83;
            --color3: #f6b83d;
            --color4: #262626;
            --color5: #fff4df;
            --color6: #fff;
            --color7: #f43f5e;
            --color8: #54adff;
        }
    </style>
    <defs>
        <symbol id="eyeOff" viewBox="0 0 22 22" fill="none">
            <g stroke-width="2" stroke="var(--color3, #f6b83d)" stroke-linecap="round" stroke-linejoin="round" clip-path="url(#clip0_55848_2014)">
                <path d="M16.4463 16.445c-1.567 1.1944-3.475 1.8561-5.445 1.8883C4.5846 18.3333 0.918 11 0.918 11 2.0582 8.8751 3.6397 7.0186 5.5563 5.555M9.0763 3.8867c0.631-0.1477 1.277-0.2216 1.925-0.22C17.418 3.6667 21.0846 11 21.0846 11c-0.5564 1.041-1.22 2.021-1.98 2.9242M12.9446 12.9433c-0.2517 0.2702-0.5553 0.4869-0.8927 0.6372-0.3373 0.1503-0.7014 0.2312-1.0707 0.2377-0.3692 65e-4-0.736-0.0614-1.0784-0.1998-0.3424-0.1383-0.6535-0.3441-0.9146-0.6053-0.2612-0.2611-0.467-0.5722-0.6054-0.9146-0.1383-0.3424-0.2062-0.7092-0.1997-1.0784 65e-4-0.3693 0.0874-0.7334 0.2377-1.0707 0.1503-0.3374 0.367-0.641 0.6372-0.8927" />
                <path d="M0.918 0.9167 21.0846 21.0833" />
            </g>
            <defs>
                <clipPath id="clip0_55848_2014">
                    <rect fill="#fff" width="22" height="22" />
                </clipPath>
            </defs>
        </symbol>
        <symbol id="eye" viewBox="0 0 22 22" fill="none">
            <g stroke-width="2" stroke="var(--color3, #f6b83d)" stroke-linecap="round" stroke-linejoin="round" clip-path="url(#clip0_55848_2014)">
                <path d="M0.916 11c0 0 3.6667-7.3333 10.0833-7.3333C17.416 3.6667 21.0827 11 21.0827 11s-3.6667 7.3333-10.0834 7.3333C4.5827 18.3333 0.916 11 0.916 11z" />
                <path d="M11 13.75c1.5188 0 2.75-1.2312 2.75-2.75 0-1.5188-1.2312-2.75-2.75-2.75-1.5188 0-2.75 1.2312-2.75 2.75 0 1.5188 1.2312 2.75 2.75 2.75z" />
            </g>
        </symbol>
        <symbol id="search" viewBox="0 0 18 18" stroke-width="2" stroke="var(--color4, #262626)" stroke-linecap="round" stroke-linejoin="round" fill="none">
            <path d="M8.25 14.25c3.3137 0 6-2.6863 6-6s-2.6863-6-6-6-6 2.6863-6 6 2.6863 6 6 6z" />
            <path d="M15.7508 15.75l-3.2625-3.2625" />
        </symbol>
        <symbol id="chevronDown" viewBox="0 0 18 18" fill="none">
            <path stroke-width="2" stroke="var(--color4, #262626)" stroke-linecap="round" stroke-linejoin="round" d="M4.5 6.75 9 11.25l4.5-4.5" />
        </symbol>
        <symbol id="icon" viewBox="0 0 50 50" stroke-width="2" stroke="var(--color3, #f6b83d)" stroke-linecap="round" stroke-linejoin="round" fill="var(--color3, #f6b83d)">
            <circle stroke="none" fill="var(--color5, #fff4df)" cx="25" cy="25" r="25" />
            <path d="M24.9999 28c-3.1701 0-5.9893 1.5306-7.7841 3.906-0.3862 0.5112-0.5794 0.7668-0.5731 1.1123 49e-4 0.2669 0.1725 0.6036 0.3825 0.7684C17.297 34 17.6737 34 18.4271 34h13.1455c0.7534 0 1.1301 0 1.4019-0.2133 0.21-0.1648 0.3776-0.5015 0.3825-0.7684 63e-4-0.3455-0.1869-0.6011-0.5731-1.1123-1.7948-2.3754-4.614-3.906-7.784-3.906z" />
            <path d="M25 25c2.4853 0 4.5-2.0147 4.5-4.5S27.4853 16 25 16s-4.5 2.0147-4.5 4.5S22.5147 25 25 25z" />
        </symbol>
        <symbol id="calendar" viewBox="0 0 20 20" stroke-width="1.8" stroke="var(--color4, #262626)" stroke-linecap="round" stroke-linejoin="round" fill="none">
            <path d="M15.8333 3.3333l-11.6666 0C3.2462 3.3333 2.5 4.0795 2.5 5v11.6667c0 0.9204 0.7462 1.6666 1.6667 1.6666h11.6666c0.9205 0 1.6667-0.7462 1.6667-1.6666V5c0-0.9205-0.7462-1.6667-1.6667-1.6667z" />
            <path d="M13.333 1.6667V5" />
            <path d="M6.667 1.6667 6.667 5" />
            <path d="M2.5 8.3333l15 0" />
        </symbol>
        <symbol id="image" viewBox="0 0 60 60" fill="none">
            <circle fill="var(--color5, #fff4df)" cx="30" cy="30" r="30" />
            <path fill="var(--color6, #fff)" d="M14 44.24h32v-32H14z" />
        </symbol>
        <symbol id="image1" viewBox="0 0 60 60" fill="none">
            <circle fill="var(--color5, #fff4df)" cx="30" cy="30" r="30" />
            <path fill="var(--color6, #fff)" d="M14 44.24h32v-32H14z" />
        </symbol>
        <symbol id="female" viewBox="0 0 40 40" fill="none">
            <rect fill="var(--color7, #f43f5e)" fill-opacity="0.1" width="40" height="40" rx="20" />
            <path stroke-width="1.5" stroke="var(--color7, #f43f5e)" stroke-linecap="round" stroke-linejoin="round" d="M20 21c2.7614 0 5-2.2386 5-5s-2.2386-5-5-5-5 2.2386-5 5 2.2386 5 5 5zM20 21v8M17 26h6" />
        </symbol>
        <symbol id="male" viewBox="0 0 40 40" fill="none">
            <rect fill="var(--color8, #54adff)" fill-opacity="0.1" width="40" height="40" rx="20" />
            <path stroke-width="1.5" stroke="var(--color8, #54adff)" stroke-linecap="round" stroke-linejoin="round" d="M20 19c-2.7614 0-5 2.2386-5 5s2.2386 5 5 5 5-2.2386 5-5-2.2386-5-5-5zM20 19v-8M20 11l4 4M20 11l-4 4" />
        </symbol>
        <symbol id="multiple" viewBox="0 0 40 40" fill="var(--color3, #f6b83d)" clip-rule="evenodd" fill-rule="evenodd">
            <rect fill="var(--color5, #fff4df)" width="40" height="40" fill-rule="nonzero" rx="20" />
            <path d="M16.7707 15.745c-0.7176-0.2803-1.5076-0.3158-2.2475-0.1011s-1.3883 0.6676-1.8444 1.2884c-0.4562 0.6208-0.6947 1.3749-0.6785 2.1451 0.0162 0.7703 0.2862 1.5136 0.768 2.1147 0.4819 0.6011 1.1487 1.0264 1.8969 1.2098 0.7483 0.1834 1.5362 0.1147 2.2414-0.1955 0.7052-0.3101 1.2883-0.8444 1.6589-1.5198 0.3705-0.6755 0.5077-1.4543 0.3903-2.2157-99e-4-0.0649-7e-3-0.1311 86e-4-0.1949 0.0156-0.0637 0.0436-0.1238 0.0824-0.1767 0.0389-0.053 0.0877-0.0977 0.1438-0.1318 0.0562-0.034 0.1184-0.0567 0.1833-0.0666 0.0649-0.01 0.1311-71e-4 0.1949 85e-4 0.0637 0.0156 0.1238 0.0436 0.1767 0.0824 0.053 0.0389 0.0977 0.0877 0.1318 0.1439 0.034 0.0561 0.0567 0.1184 0.0666 0.1832 0.1508 0.979-0.0258 1.9803-0.5023 2.8486s-1.2263 1.5551-2.133 1.9538c-0.9067 0.3986-1.9196 0.4868-2.8816 0.251-0.962-0.2359-1.8192-0.7827-2.4387-1.5555-0.6194-0.7729-0.9665-1.7286-0.9873-2.7188-0.0208-0.9903 0.2858-1.9597 0.8723-2.7579 0.5864-0.7982 1.42-1.3805 2.3712-1.6565 0.9512-0.2761 1.9669-0.2305 2.8896 0.1298 0.062 0.0232 0.1187 0.0585 0.1669 0.1039 0.0482 0.0453 0.087 0.0998 0.1139 0.1602 0.027 0.0605 0.0417 0.1257 0.0433 0.1919 16e-4 0.0661-0.01 0.132-0.034 0.1936-0.0241 0.0617-0.0602 0.118-0.1061 0.1656-0.046 0.0476-0.101 0.0856-0.1618 0.1118-0.0608 0.0261-0.1262 0.04-0.1924 0.0407s-0.1318-0.0112-0.1932-0.0361z" />
            <path d="M14.998 27.5002v-3.9984c0-0.1325 0.0527-0.2597 0.1464-0.3534 0.0938-0.0937 0.2209-0.1464 0.3534-0.1464 0.1326 0 0.2597 0.0527 0.3535 0.1464 0.0937 0.0937 0.1463 0.2209 0.1463 0.3534v3.9984c0 0.1326-0.0526 0.2597-0.1463 0.3534C15.7575 27.9473 15.6304 28 15.4978 28c-0.1325 0-0.2596-0.0527-0.3534-0.1464-0.0937-0.0937-0.1464-0.2208-0.1464-0.3534z" />
            <path d="M13.499 25.0012c0-0.1325 0.0527-0.2597 0.1464-0.3534s0.2209-0.1464 0.3534-0.1464h2.9988c0.1326 0 0.2597 0.0527 0.3534 0.1464s0.1464 0.2209 0.1464 0.3534c0 0.1326-0.0527 0.2597-0.1464 0.3534-0.0937 0.0938-0.2208 0.1464-0.3534 0.1464h-2.9988c-0.1325 0-0.2597-0.0526-0.3534-0.1464-0.0937-0.0937-0.1464-0.2208-0.1464-0.3534zM22.4464 15.6365c-0.5539-0.1563-1.1378-0.1736-1.7-0.0504-0.5621 0.1233-1.0852 0.3834-1.5228 0.7572s-0.7763 0.8498-0.9859 1.3858c-0.2097 0.5359-0.2839 1.1154-0.216 1.6869 81e-4 0.0653 32e-4 0.1317-0.0144 0.1951-0.0176 0.0635-0.0475 0.1228-0.0882 0.1747-0.0406 0.0518-0.091 0.0951-0.1484 0.1274s-0.1206 0.0529-0.186 0.0607c-0.0654 77e-4-0.1317 25e-4-0.1951-0.0154-0.0633-0.018-0.1225-0.0482-0.1742-0.0891-0.0516-0.0409-0.0946-0.0916-0.1266-0.1491-0.032-0.0576-0.0523-0.1209-0.0597-0.1864-0.1168-0.9835 0.0944-1.9782 0.6007-2.8295 0.5062-0.8513 1.2794-1.5117 2.1994-1.8787 0.9199-0.367 1.9353-0.4201 2.8886-0.1511 0.9532 0.2691 1.791 0.8453 2.3833 1.6391 0.5924 0.7939 0.9061 1.7611 0.8925 2.7515-0.0135 0.9904-0.3536 1.9486-0.9674 2.726s-1.467 1.3304-2.4273 1.5733c-0.9602 0.2429-1.9738 0.162-2.8834-0.23-0.0603-0.026-0.1149-0.0636-0.1606-0.1106-0.0458-0.0471-0.0818-0.1027-0.1061-0.1637-0.049-0.1231-0.0471-0.2607 53e-4-0.3825 0.0524-0.1217 0.1511-0.2176 0.2742-0.2667 0.1232-0.049 0.2608-0.0471 0.3825 54e-4 0.4398 0.1894 0.9137 0.2866 1.3925 0.2855s0.9523-0.1005 1.3911-0.292 0.8337-0.471 1.1602-0.8213c0.3264-0.3502 0.5775-0.7638 0.7376-1.215 0.1602-0.4512 0.226-0.9305 0.1935-1.4082-0.0326-0.4777-0.1628-0.9436-0.3827-1.3689s-0.5248-0.801-0.8958-1.1037c-0.3709-0.3027-0.8-0.5261-1.2608-0.6563z" />
            <path d="M24.3915 16.6081c-0.0937-0.0937-0.1464-0.2208-0.1464-0.3533 0-0.1326 0.0527-0.2597 0.1464-0.3534l3.7484-3.7485c0.0461-0.0477 0.1013-0.0858 0.1623-0.112 0.0609-0.0262 0.1265-0.04 0.1929-0.0405 0.0663-6e-4 0.1322 0.012 0.1936 0.0372 0.0614 0.0251 0.1172 0.0622 0.1641 0.1091 0.047 0.047 0.0841 0.1028 0.1092 0.1642s0.0378 0.1272 0.0372 0.1936c-6e-4 0.0663-0.0144 0.1319-0.0406 0.1929-0.0261 0.061-0.0642 0.1161-0.112 0.1622l-3.7484 3.7485c-0.0938 0.0937-0.2209 0.1463-0.3534 0.1463s-0.2596-0.0526-0.3533-0.1463z" />
            <path d="M28.455 15.5051c-0.0657-9e-4-0.1305-0.0146-0.1908-0.0405s-0.1149-0.0635-0.1607-0.1105-0.0819-0.1026-0.1063-0.1636c-0.0243-0.0609-0.0364-0.1261-0.0355-0.1917l0.025-1.9862-1.9862 0.025c-0.1326 17e-4-0.2604-0.0493-0.3553-0.1418-0.095-0.0925-0.1493-0.219-0.151-0.3515-17e-4-0.1326 0.0493-0.2604 0.1418-0.3553 0.0925-0.095 0.2189-0.1493 0.3515-0.151L28.9993 12l-0.038 3.0118c-9e-4 0.0656-0.0146 0.1304-0.0405 0.1908-0.0259 0.0603-0.0635 0.1149-0.1105 0.1607s-0.1026 0.0819-0.1636 0.1062c-0.0609 0.0244-0.1261 0.0364-0.1917 0.0356z" />
        </symbol>
        <symbol id="heart" viewBox="0 0 48 48" fill="none">
            <rect fill="var(--color5, #fff4df)" width="48" height="48" rx="24" />
            <path stroke-width="1.5" stroke="var(--color3, #f6b83d)" stroke-linejoin="round" d="M30.6306 18.4575c-0.3831-0.3833-0.8379-0.6873-1.3385-0.8947s-1.0372-0.3142-1.579-0.3142c-0.5419 0-1.0784 0.1068-1.579 0.3142s-0.9555 0.5114-1.3385 0.8947l-0.795 0.795-0.795-0.795c-0.7738-0.7738-1.8232-1.2085-2.9175-1.2085s-2.1438 0.4347-2.9175 1.2085c-0.7738 0.7738-1.2085 1.8232-1.2085 2.9175s0.4347 2.1437 1.2085 2.9175l0.795 0.795 5.835 5.835 5.835-5.835 0.795-0.795c0.3832-0.3831 0.6872-0.8379 0.8947-1.3385 0.2074-0.5006 0.3141-1.0371 0.3141-1.579s-0.1067-1.0784-0.3141-1.579c-0.2075-0.5006-0.5115-0.9554-0.8947-1.3385z" />
        </symbol>
        <symbol id="wastebasket" viewBox="0 0 44 44" stroke-width="1.5" stroke="var(--color3, #f6b83d)" stroke-linecap="round" stroke-linejoin="round" fill="none">
            <rect stroke="none" fill="var(--color5, #fff4df)" width="44" height="44" rx="22" />
            <path d="M15.25 17.5h1.5 12" />
            <path d="M27.25 17.5V28c0 0.3978-0.158 0.7794-0.4393 1.0607S26.1478 29.5 25.75 29.5h-7.5c-0.3978 0-0.7794-0.158-1.0607-0.4393S16.75 28.3978 16.75 28V17.5M19 17.5V16c0-0.3978 0.158-0.7794 0.4393-1.0607S20.1022 14.5 20.5 14.5h3c0.3978 0 0.7794 0.158 1.0607 0.4393S25 15.6022 25 16v1.5" />
            <path d="M20.5 21.25v4.5" />
            <path d="M23.5 21.25v4.5" />
        </symbol>
        <symbol id="pen" viewBox="0 0 38 38" fill="none">
            <rect fill="var(--color5, #fff4df)" width="38" height="38" rx="19" />
            <path stroke-width="1.5" stroke="var(--color3, #f6b83d)" stroke-linejoin="round" d="M22.75 12.25c0.197-0.197 0.4308-0.3532 0.6882-0.4598s0.5332-0.1615 0.8118-0.1615 0.5544 0.0549 0.8118 0.1615S25.553 12.053 25.75 12.25s0.3532 0.4308 0.4598 0.6882 0.1615 0.5332 0.1615 0.8118-0.0549 0.5544-0.1615 0.8118S25.947 15.053 25.75 15.25L15.625 25.375 11.5 26.5l1.125-4.125z" />
            <defs>
                <clipPath id="clip0_55859_2235">
                    <rect fill="#fff" transform="translate(10 10)" width="18" height="18" />
                </clipPath>
            </defs>
        </symbol>
        <symbol id="slider2r" viewBox="0 0 44 44" fill="var(--color4, #262626)" fill-opacity="0.5">
            <path stroke="var(--color4, #262626)" stroke-opacity="0.05" fill="none" fill-opacity="1" d="M22 0.5c11.8741 0 21.5 9.6259 21.5 21.5S33.8741 43.5 22 43.5 0.5 33.8741 0.5 22C0.5 10.1259 10.1259 0.5 22 0.5z" />
            <path d="M16.6008 22.71c-0.0937-0.093-0.1681-0.2036-0.2189-0.3254C16.3312 22.2627 16.305 22.132 16.305 22s0.0262-0.2627 0.0769-0.3846c0.0508-0.1218 0.1252-0.2324 0.2189-0.3254l4.59-4.58c0.0938-0.093 0.1682-0.2036 0.2189-0.3254 0.0508-0.1219 0.0769-0.2526 0.0769-0.3846s-0.0261-0.2627-0.0769-0.3846c-0.0507-0.1218-0.1251-0.2324-0.2189-0.3254-0.1873-0.1863-0.4408-0.2908-0.705-0.2908-0.2641 0-0.5176 0.1045-0.705 0.2908l-4.59 4.59c-0.5618 0.5625-0.8773 1.325-0.8773 2.12s0.3155 1.5575 0.8773 2.12l4.59 4.59c0.1863 0.1848 0.4377 0.2889 0.7 0.29 0.1316 8e-4 0.2621-0.0244 0.3839-0.0742 0.1219-0.0498 0.2327-0.1231 0.3261-0.2158 0.0938-0.0929 0.1682-0.2035 0.2189-0.3254 0.0508-0.1219 0.0769-0.2526 0.0769-0.3846s-0.0261-0.2627-0.0769-0.3846c-0.0507-0.1218-0.1251-0.2324-0.2189-0.3254z" />
            <path d="M23.6008 22.71c-0.0937-0.093-0.1681-0.2036-0.2189-0.3254C23.3312 22.2627 23.305 22.132 23.305 22s0.0262-0.2627 0.0769-0.3846c0.0508-0.1218 0.1252-0.2324 0.2189-0.3254l4.59-4.58c0.0938-0.093 0.1682-0.2036 0.2189-0.3254 0.0508-0.1219 0.0769-0.2526 0.0769-0.3846s-0.0261-0.2627-0.0769-0.3846c-0.0507-0.1218-0.1251-0.2324-0.2189-0.3254-0.1873-0.1863-0.4408-0.2908-0.705-0.2908-0.2641 0-0.5176 0.1045-0.705 0.2908l-4.59 4.59c-0.5618 0.5625-0.8773 1.325-0.8773 2.12s0.3155 1.5575 0.8773 2.12l4.59 4.59c0.1863 0.1848 0.4377 0.2889 0.7 0.29 0.1316 8e-4 0.2621-0.0244 0.3839-0.0742 0.1219-0.0498 0.2327-0.1231 0.3261-0.2158 0.0938-0.0929 0.1682-0.2035 0.2189-0.3254 0.0508-0.1219 0.0769-0.2526 0.0769-0.3846s-0.0261-0.2627-0.0769-0.3846c-0.0507-0.1218-0.1251-0.2324-0.2189-0.3254z" />
        </symbol>
        <symbol id="slider1r" viewBox="0 0 44 44" fill="none">
            <path stroke="var(--color4, #262626)" stroke-opacity="0.05" d="M22 0.5c11.8741 0 21.5 9.6259 21.5 21.5S33.8741 43.5 22 43.5 0.5 33.8741 0.5 22C0.5 10.1259 10.1259 0.5 22 0.5z" />
            <path fill="var(--color4, #262626)" fill-opacity="0.5" d="M20.6008 22.71c-0.0937-0.093-0.1681-0.2036-0.2189-0.3254C20.3312 22.2627 20.305 22.132 20.305 22s0.0262-0.2627 0.0769-0.3846c0.0508-0.1218 0.1252-0.2324 0.2189-0.3254l4.59-4.58c0.0938-0.093 0.1682-0.2036 0.2189-0.3254 0.0508-0.1219 0.0769-0.2526 0.0769-0.3846s-0.0261-0.2627-0.0769-0.3846c-0.0507-0.1218-0.1251-0.2324-0.2189-0.3254-0.1873-0.1863-0.4408-0.2908-0.705-0.2908-0.2641 0-0.5176 0.1045-0.705 0.2908l-4.59 4.59c-0.5618 0.5625-0.8773 1.325-0.8773 2.12s0.3155 1.5575 0.8773 2.12l4.59 4.59c0.1863 0.1848 0.4377 0.2889 0.7 0.29 0.1316 8e-4 0.2621-0.0244 0.3839-0.0742 0.1219-0.0498 0.2327-0.1231 0.3261-0.2158 0.0938-0.0929 0.1682-0.2035 0.2189-0.3254 0.0508-0.1219 0.0769-0.2526 0.0769-0.3846s-0.0261-0.2627-0.0769-0.3846c-0.0507-0.1218-0.1251-0.2324-0.2189-0.3254z" />
        </symbol>
        <symbol id="slider1l" viewBox="0 0 44 44" fill="none">
            <path stroke="var(--color4, #262626)" stroke-opacity="0.2" d="M22 0.5c11.8741 0 21.5 9.6259 21.5 21.5S33.8741 43.5 22 43.5 0.5 33.8741 0.5 22C0.5 10.1259 10.1259 0.5 22 0.5z" />
            <path fill="var(--color4, #262626)" d="M23.3992 22.71c0.0937-0.093 0.1681-0.2036 0.2189-0.3254C23.6688 22.2627 23.695 22.132 23.695 22s-0.0262-0.2627-0.0769-0.3846c-0.0508-0.1218-0.1252-0.2324-0.2189-0.3254l-4.59-4.58c-0.0938-0.093-0.1682-0.2036-0.2189-0.3254-0.0508-0.1219-0.0769-0.2526-0.0769-0.3846s0.0261-0.2627 0.0769-0.3846c0.0507-0.1218 0.1251-0.2324 0.2189-0.3254 0.1873-0.1863 0.4408-0.2908 0.705-0.2908 0.2641 0 0.5176 0.1045 0.705 0.2908l4.59 4.59c0.5618 0.5625 0.8773 1.325 0.8773 2.12s-0.3155 1.5575-0.8773 2.12l-4.59 4.59c-0.1863 0.1848-0.4377 0.2889-0.7 0.29-0.1316 8e-4-0.2621-0.0244-0.3839-0.0742-0.1219-0.0498-0.2327-0.1231-0.3261-0.2158-0.0938-0.0929-0.1682-0.2035-0.2189-0.3254-0.0508-0.1219-0.0769-0.2526-0.0769-0.3846s0.0261-0.2627 0.0769-0.3846c0.0507-0.1218 0.1251-0.2324 0.2189-0.3254z" />
        </symbol>
        <symbol id="slider2l" viewBox="0 0 44 44" fill="var(--color4, #262626)">
            <path stroke="var(--color4, #262626)" stroke-opacity="0.2" fill="none" d="M22 0.5c11.8741 0 21.5 9.6259 21.5 21.5S33.8741 43.5 22 43.5 0.5 33.8741 0.5 22C0.5 10.1259 10.1259 0.5 22 0.5z" />
            <path d="M27.3992 22.71c0.0937-0.093 0.1681-0.2036 0.2189-0.3254C27.6688 22.2627 27.695 22.132 27.695 22s-0.0262-0.2627-0.0769-0.3846c-0.0508-0.1218-0.1252-0.2324-0.2189-0.3254l-4.59-4.58c-0.0938-0.093-0.1682-0.2036-0.2189-0.3254-0.0508-0.1219-0.0769-0.2526-0.0769-0.3846s0.0261-0.2627 0.0769-0.3846c0.0507-0.1218 0.1251-0.2324 0.2189-0.3254 0.1873-0.1863 0.4408-0.2908 0.705-0.2908 0.2641 0 0.5176 0.1045 0.705 0.2908l4.59 4.59c0.5618 0.5625 0.8773 1.325 0.8773 2.12s-0.3155 1.5575-0.8773 2.12l-4.59 4.59c-0.1863 0.1848-0.4377 0.2889-0.7 0.29-0.1316 8e-4-0.2621-0.0244-0.3839-0.0742-0.1219-0.0498-0.2327-0.1231-0.3261-0.2158-0.0938-0.0929-0.1682-0.2035-0.2189-0.3254-0.0508-0.1219-0.0769-0.2526-0.0769-0.3846s0.0261-0.2627 0.0769-0.3846c0.0507-0.1218 0.1251-0.2324 0.2189-0.3254z" />
            <path d="M20.3992 22.71c0.0937-0.093 0.1681-0.2036 0.2189-0.3254C20.6688 22.2627 20.695 22.132 20.695 22s-0.0262-0.2627-0.0769-0.3846c-0.0508-0.1218-0.1252-0.2324-0.2189-0.3254l-4.59-4.58c-0.0938-0.093-0.1682-0.2036-0.2189-0.3254-0.0508-0.1219-0.0769-0.2526-0.0769-0.3846s0.0261-0.2627 0.0769-0.3846c0.0507-0.1218 0.1251-0.2324 0.2189-0.3254 0.1873-0.1863 0.4408-0.2908 0.705-0.2908 0.2641 0 0.5176 0.1045 0.705 0.2908l4.59 4.59c0.5618 0.5625 0.8773 1.325 0.8773 2.12s-0.3155 1.5575-0.8773 2.12l-4.59 4.59c-0.1863 0.1848-0.4377 0.2889-0.7 0.29-0.1316 8e-4-0.2621-0.0244-0.3839-0.0742-0.1219-0.0498-0.2327-0.1231-0.3261-0.2158-0.0938-0.0929-0.1682-0.2035-0.2189-0.3254-0.0508-0.1219-0.0769-0.2526-0.0769-0.3846s0.0261-0.2627 0.0769-0.3846c0.0507-0.1218 0.1251-0.2324 0.2189-0.3254z" />
        </symbol>
        <symbol id="star" viewBox="0 0 16 16" fill="none">
            <path stroke-width="1.2" stroke="var(--color0, #ffc531)" fill="var(--color0, #ffc531)" d="M9.7998 4.6973C9.959 4.9988 10.249 5.2094 10.585 5.2676l3.7998 0.6562-2.6875 2.7676c-0.2376 0.2446-0.3484 0.5854-0.2998 0.9229l0.5488 3.8173-3.461-1.7011-0.1171-0.0498c-0.2381-0.0846-0.4983-0.0846-0.7364 0l-0.1172 0.0498-3.4619 1.7011 0.5498-3.8173C4.6511 9.2768 4.5403 8.936 4.3027 8.6914L1.6143 5.9238 5.415 5.2676c0.336-0.0582 0.626-0.2688 0.7852-0.5703L8 1.2861z" />
            <defs>
                <clipPath id="clip0_55857_2203">
                    <rect fill="#fff" width="16" height="16" />
                </clipPath>
            </defs>
        </symbol>
        <symbol id="crossSmall" viewBox="0 0 22 22" fill="none">
            <path stroke-width="2" stroke="var(--color1, #ef2447)" stroke-linecap="round" d="M17.4163 4.5833 4.583 17.4167M4.5831 4.5833 17.4163 17.4167" />
        </symbol>
        <symbol id="check" viewBox="0 0 22 22" fill="none">
            <path stroke-width="1.5" stroke="var(--color2, #08aa83)" stroke-linecap="round" stroke-linejoin="round" d="M18.3337 6.4167 8.2504 16.5 3.667 11.9167" />
        </symbol>
    </defs>
</svg>